<svg width="16" height="147" viewBox="0 0 16 147" fill="none" xmlns="http://www.w3.org/2000/svg">
<g clip-path="url(#clip0_1308_429)">
<path d="M5.50928 3.95372L0.522802 3.95372L0.522802 0.557617L15.5713 0.557617L15.5713 8.79714C15.5713 12.4793 13.1838 14.3642 10.5617 14.3642C7.93974 14.3642 5.50928 12.5029 5.50928 8.82069L5.50928 3.95372ZM8.84127 8.86108C8.84127 10.1771 9.57107 10.9647 10.5188 10.9647C11.4633 10.9647 12.2393 10.1771 12.2393 8.86108L12.2393 3.95372L8.84127 3.95372L8.84127 8.86108Z" fill="white"/>
<path d="M16 25.9272C16 21.4575 12.4335 17.819 8.04483 17.819C3.65941 17.819 0.0897054 21.4541 0.0897052 25.9272C0.089705 30.397 3.65611 34.0355 8.04483 34.0355C12.4302 34.0321 16 30.397 16 25.9272ZM8.91994 32.1776L8.91994 30.4004C10.581 30.3061 12.0571 29.946 13.2261 29.3907C12.2717 30.8717 10.7197 31.9184 8.91994 32.1776ZM13.8403 25.0319L8.91994 25.0319L8.91994 23.2447C11.2381 23.4029 13.0643 24.1669 13.8403 25.0319ZM7.16973 25.0319L2.24939 25.0319C3.02539 24.1635 4.85152 23.3996 7.16973 23.2413L7.16973 25.0319ZM2.24939 26.8192L7.16973 26.8192L7.16973 28.6098C4.85152 28.4516 3.02539 27.6841 2.24939 26.8192ZM8.91994 26.8192L13.8403 26.8192C13.0643 27.6876 11.2381 28.4516 8.91994 28.6098L8.91994 26.8192ZM13.2294 22.4605C12.0604 21.9051 10.5843 21.5449 8.92324 21.4506L8.92324 19.6736C10.7197 19.9361 12.2717 20.9795 13.2294 22.4605ZM7.16973 19.6736L7.16973 21.4506C5.50869 21.5449 4.03253 21.905 2.86357 22.4605C3.82123 20.9795 5.3733 19.9361 7.16973 19.6736ZM2.86357 29.3907C4.03584 29.946 5.51199 30.3061 7.16973 30.4004L7.16973 32.1776C5.3733 31.9184 3.82123 30.8717 2.86357 29.3907Z" fill="white"/>
<path d="M0.0897053 45.5847C0.0897055 40.1927 3.27307 38.0016 3.27307 38.0016L5.42284 40.5663C5.42284 40.5663 3.42496 42.4512 3.42496 45.6049C3.42496 47.7287 3.87733 49.0684 4.90763 49.0684C5.89506 49.0684 6.15594 47.9711 6.26161 46.6584L6.47626 44.0297C6.75695 40.7212 8.23967 38.4424 11.1192 38.4424C14.0219 38.4424 16 41.0711 16 44.9048C16 49.792 12.8827 51.9158 12.8827 51.9158L10.8617 49.2871C10.8617 49.2871 12.668 47.9072 12.668 44.9048C12.668 42.845 12.1099 41.8823 11.2051 41.8823C10.4324 41.8823 9.99978 42.6262 9.8941 44.0297L9.67946 46.6584C9.39876 50.0781 8.08776 52.5756 5.07936 52.5756C2.07104 52.5756 0.0897051 49.856 0.0897053 45.5847Z" fill="white"/>
<path d="M12.2393 69.6449L12.2393 64.4951L0.522802 64.4951L0.522802 61.0991L12.2393 61.0991L12.2393 55.9729L15.5713 55.9729L15.5713 69.6482L12.2393 69.6482L12.2393 69.6449Z" fill="white"/>
<path d="M5.01333 88.2508C1.87285 86.9584 0.0897051 84.2624 0.0897052 80.7552C0.0897054 76.0868 3.29291 72.6031 8.04483 72.6031C12.7968 72.6031 16 76.2012 16 80.6474C16 84.1109 14.2597 86.8272 11.1622 88.1195L9.85118 84.9658C11.5717 84.1782 12.668 82.6636 12.668 80.671C12.668 77.9313 10.69 76.0026 8.04483 76.0026C5.29408 76.0026 3.42165 77.9313 3.42165 80.671C3.42165 82.7948 4.60384 84.3532 6.36728 85.1206L5.01333 88.2508Z" fill="white"/>
<path d="M0.522801 104.645L3.96376 103.265L3.96376 96.1868L0.522802 94.8271L0.522802 91.1011L15.5713 97.0182L15.5713 102.454L0.522801 108.371L0.522801 104.645ZM7.2925 97.4793L7.2925 101.973L13.1177 99.7378L7.2925 97.4793Z" fill="white"/>
<path d="M0.522801 122.724L5.72723 120.008L5.72723 115.494L0.522802 115.494L0.522802 112.098L15.5713 112.098L15.5713 120.446C15.5713 124.128 13.2927 126.013 10.6707 126.013C8.84456 126.013 7.18682 125.113 6.32824 123.34L0.522801 126.561L0.522801 122.724ZM9.05591 120.621C9.05591 121.937 9.68004 122.616 10.6245 122.616C11.5689 122.616 12.236 121.937 12.236 120.621L12.236 115.494L9.0526 115.494L9.0526 120.621L9.05591 120.621Z" fill="white"/>
<path d="M0.522804 130.835L15.5713 130.835L15.5713 138.109C15.5713 141.023 13.831 145.624 8.04542 145.624C2.25987 145.624 0.519496 140.804 0.519496 137.89L0.519497 130.835L0.522804 130.835ZM8.04542 142.205C10.4957 142.205 12.236 140.474 12.236 137.954L12.236 134.228L3.85155 134.228L3.85155 137.93C3.85486 140.454 5.59513 142.205 8.04542 142.205Z" fill="white"/>
</g>
<defs>
<clipPath id="clip0_1308_429">
<rect width="147" height="16" fill="white" transform="translate(16) rotate(90)"/>
</clipPath>
</defs>
</svg>
