<svg width="121" height="121" viewBox="0 0 121 121" fill="none" xmlns="http://www.w3.org/2000/svg">
<path fill-rule="evenodd" clip-rule="evenodd" d="M64.2488 0.119998V0H56.7489V0.119998C42.1605 1.03434 28.4076 7.24278 18.0726 17.5795C7.73773 27.9163 1.53174 41.6703 0.619998 56.2589H0.5V63.7588H0.619998C1.34297 75.2836 5.37635 86.355 12.2361 95.6442C19.0958 104.933 28.4904 112.046 39.2924 116.128C50.0943 120.21 61.8448 121.088 73.1334 118.656C84.4221 116.225 94.7694 110.588 102.933 102.421C111.097 94.2546 116.731 83.9056 119.159 72.6162C121.587 61.3268 120.705 49.5766 116.62 38.7759C112.534 27.9752 105.419 18.5828 96.1278 11.726C86.8365 4.86925 75.7738 0.839352 64.2488 0.119998ZM56.7489 8.04985C51.869 9.45982 46.7191 13.6697 42.2292 21.3596C37.1293 30.0994 33.6094 42.3292 33.0694 56.2589H56.7489V8.05985V8.04985ZM64.2488 56.2489V8.04985C69.1287 9.45982 74.2786 13.6697 78.7685 21.3596C83.8684 30.0994 87.3883 42.3292 87.9283 56.2589H64.2388L64.2488 56.2489ZM56.7489 63.7488H33.0694C33.6094 77.6885 37.1293 89.9083 42.2292 98.6481C46.7191 106.348 51.869 110.548 56.7489 111.958V63.7588V63.7488ZM64.2488 111.958V63.7588H87.9383C87.3983 77.6885 83.8784 89.9083 78.7785 98.6581C74.2886 106.348 69.1387 110.558 64.2588 111.958H64.2488ZM81.3484 108.198C89.3883 97.9681 94.7782 81.9584 95.4282 63.7588H112.868C112.18 73.34 108.877 82.549 103.32 90.3841C97.7626 98.2193 90.1633 104.381 81.3484 108.198ZM95.4282 56.2589H112.868C112.18 46.6749 108.877 37.463 103.318 29.6258C97.7589 21.7887 90.1566 15.6264 81.3384 11.8098C89.3783 22.0496 94.7682 38.0493 95.4182 56.2589H95.4282ZM39.6492 11.8098C31.6094 22.0496 26.2195 38.0493 25.5695 56.2589H8.12985C8.8164 46.676 12.118 37.4649 17.6753 29.6278C23.2327 21.7907 30.833 15.6278 39.6492 11.8098ZM25.5695 63.7588H8.12985C8.81818 73.34 12.1206 82.549 17.6778 90.3841C23.2351 98.2193 30.8344 104.381 39.6492 108.198C31.6094 97.9681 26.2195 81.9584 25.5695 63.7588Z" fill="black"/>
</svg>
